<svg id="SvgjsSvg1041" width="288" height="288" xmlns="http://www.w3.org/2000/svg" version="1.1" xmlns:xlink="http://www.w3.org/1999/xlink" xmlns:svgjs="http://svgjs.com/svgjs"><circle id="SvgjsCircle1052" r="144" cx="144" cy="144" fill="#fc5185" transform="matrix(0.9167,0,0,0.9167,11.995200000000011,11.995200000000011)" data-darkreader-inline-fill="" style="--darkreader-inline-fill:#9b0331;"></circle><defs id="SvgjsDefs1042"></defs><g id="SvgjsG1043" transform="matrix(0.68,0,0,0.68,46.07999877929687,46.07996704101562)"><svg xmlns="http://www.w3.org/2000/svg" enable-background="new 0 0 512 512" viewBox="0 0 512 512" width="288" height="288"><path fill="#fdef36" d="M433.479,205.747c75.09,43.351,100.812,139.37,57.461,214.46s-139.37,100.812-214.46,57.461
	c-7.304-4.21-14.135-8.93-20.48-14.074l31.824-170.903l123.221-97.645C418.677,197.97,426.175,201.537,433.479,205.747z" class="colorffce47 svgShape" data-darkreader-inline-fill="" style="--darkreader-inline-fill:#ab9f02;"></path><path fill="#43dde6" d="M78.521,205.747c-75.09,43.351-100.812,139.37-57.461,214.46s139.37,100.812,214.46,57.461
	c7.304-4.21,14.135-8.93,20.48-14.074l-31.824-170.903l-123.221-97.645C93.323,197.97,85.825,201.537,78.521,205.747z" class="colorff4181 svgShape" data-darkreader-inline-fill="" style="--darkreader-inline-fill:#15969e;"></path><path fill="#364f6b" d="M412.999,170.271c0,8.432-0.667,16.707-1.953,24.775L256,256.196l-155.046-61.15
	c-1.286-8.068-1.953-16.343-1.953-24.775c0-86.713,70.298-156.999,156.999-156.999S412.999,83.557,412.999,170.271z" class="color4eb9ff svgShape" data-darkreader-inline-fill="" style="--darkreader-inline-fill:#2b3f56;"></path><path fill="#43dde6" d="M312.09,316.957H199.91C191.21,371.482,211.933,427.9,256,463.594
	C300.066,427.9,320.789,371.482,312.09,316.957z" class="colorff755c svgShape" data-darkreader-inline-fill="" style="--darkreader-inline-fill:#15969e;"></path><path fill="#364f6b" d="M256,219.797l56.09,97.16c51.577-19.74,90.086-65.906,98.955-121.911
	C358.098,174.724,298.865,185,256,219.797z" class="color85c250 svgShape" data-darkreader-inline-fill="" style="--darkreader-inline-fill:#2b3f56;"></path><path fill="#364f6b" d="M100.954,195.046c8.869,56.005,47.379,102.171,98.955,121.911l56.09-97.16
	C213.134,185,153.902,174.724,100.954,195.046z" class="color3b8bc0 svgShape" data-darkreader-inline-fill="" style="--darkreader-inline-fill:#2b3f56;"></path><path fill="#364f6b" d="M292.981,263.208c9.876,17.119,16.173,35.331,19.109,53.748
	c-17.423,6.661-36.326,10.313-56.09,10.313s-38.667-3.652-56.09-10.313c2.936-18.418,9.233-36.629,19.109-53.749
	c9.876-17.107,22.494-31.667,36.981-43.411C270.486,231.542,283.105,246.101,292.981,263.208z" class="color174461 svgShape" data-darkreader-inline-fill="" style="--darkreader-inline-fill:#2b3f56;"></path></svg></g></svg>