<svg id="Layer_1" enable-background="new 0 0 512 512" viewBox="0 0 512 512" xmlns="http://www.w3.org/2000/svg"><circle cx="256" cy="256" fill="#d80027" r="256"/><path d="m407.288 210.09h-115.574l-35.714-109.916-35.714 109.916h-115.574l93.501 67.932-35.715 109.919 93.502-67.933 93.502 67.934-35.715-109.919zm-182.906 59.429 12.077-37.169h39.081l12.078 37.169v.001l-31.618 22.971-31.617-22.971zm43.926-59.429h-24.615l12.307-37.88zm38.245 45.672-7.607-23.411h39.829zm-93.5-23.411-7.607 23.411-32.223-23.411zm-8.212 97.31 12.308-37.879 19.915 14.468zm70.095-23.41 19.915-14.468 12.308 37.879z" fill="#ffda44"/><g/><g/><g/><g/><g/><g/><g/><g/><g/><g/><g/><g/><g/><g/><g/></svg>