<svg id="SvgjsSvg1001" width="288" height="288" xmlns="http://www.w3.org/2000/svg" version="1.1" xmlns:xlink="http://www.w3.org/1999/xlink" xmlns:svgjs="http://svgjs.com/svgjs"><defs id="SvgjsDefs1002"></defs><g id="SvgjsG1008" transform="matrix(1,0,0,1,0,0)"><svg xmlns="http://www.w3.org/2000/svg" width="288" height="288" viewBox="0 0 350 350"><circle cx="45" cy="45" r="45" fill="#fc5185" stroke-miterlimit="10" transform="matrix(3.89 0 0 3.89 -1.944 -1.944)" class="colorfc6 svgShape" data-darkreader-inline-fill="" style="--darkreader-inline-fill:#9b0331;"></circle><g fill="none" stroke-miterlimit="10" transform="matrix(3.39 0 0 3.39 20.806 20.806)" data-darkreader-inline-fill="" style="--darkreader-inline-fill:none;"><path fill="#364f6b" d="M 45 19 c 14.336 0 26 11.664 26 26 S 59.336 71 45 71 S 19 59.337 19 45 S 30.663 19 45 19" class="colored7161 svgShape" data-darkreader-inline-fill="" style="--darkreader-inline-fill:#2b3f56;"></path><path fill="#43dde6" d="M 45 19.564 c 14.026 0 25.436 11.411 25.436 25.436 S 59.025 70.436 45 70.436 S 19.563 59.026 19.563 45 S 30.974 19.564 45 19.564 M 45 16.597 c -15.687 0 -28.403 12.717 -28.403 28.403 S 29.313 73.403 45 73.403 S 73.403 60.687 73.403 45 S 60.686 16.597 45 16.597 L 45 16.597 z" class="color45563c svgShape" data-darkreader-inline-fill="" style="--darkreader-inline-fill:#15969e;"></path><path fill="#43dde6" d="M54.569 50.165c-.819 0-1.484.664-1.484 1.484 0 1.681-1.075 3.049-2.396 3.049h-11.38c-1.321 0-2.396-1.368-2.396-3.049V38.352c0-1.682 1.075-3.05 2.396-3.05h11.38c1.321 0 2.396 1.368 2.396 3.05 0 .819.664 1.484 1.484 1.484s1.484-.664 1.484-1.484c0-3.318-2.406-6.017-5.363-6.017h-4.207v-3.114c0-.82-.664-1.484-1.483-1.484-.82 0-1.484.664-1.484 1.484v3.114h-4.207c-2.957 0-5.363 2.699-5.363 6.017v13.297c0 3.318 2.406 6.016 5.363 6.016h4.207v3.115c0 .819.664 1.484 1.484 1.484.819 0 1.483-.664 1.483-1.484v-3.115h4.207c2.957 0 5.363-2.699 5.363-6.016C56.053 50.83 55.388 50.165 54.569 50.165zM45 4.189c-22.029 0-40.026 17.547-40.775 39.397L2.477 42.01c-.609-.549-1.547-.5-2.095.108-.549.608-.5 1.547.108 2.095l4.189 3.778c.283.254.638.382.994.382.356 0 .711-.127.994-.382l4.188-3.778c.608-.549.656-1.487.108-2.095-.549-.608-1.486-.657-2.095-.108l-1.673 1.51C7.975 23.336 24.629 7.156 45 7.156c.819 0 1.483-.664 1.483-1.484S45.819 4.189 45 4.189zM89.51 46.803l-4.189-3.778c-.564-.509-1.424-.509-1.988 0l-4.189 3.778c-.608.549-.657 1.487-.108 2.095.55.608 1.487.655 2.096.108l1.616-1.458C81.432 67.231 65.01 82.844 45 82.844c-.82 0-1.484.664-1.484 1.484 0 .819.664 1.484 1.484 1.484 21.699 0 39.491-17.025 40.736-38.417l1.787 1.612c.284.256.639.382.994.382.405 0 .808-.165 1.102-.49C90.167 48.29 90.119 47.352 89.51 46.803z" class="color45563c svgShape" data-darkreader-inline-fill="" style="--darkreader-inline-fill:#15969e;"></path></g></svg></g></svg>