<?xml version="1.0" encoding="UTF-8" standalone="no" ?>
<!DOCTYPE svg PUBLIC "-//W3C//DTD SVG 1.1//EN" "http://www.w3.org/Graphics/SVG/1.1/DTD/svg11.dtd">
<svg xmlns="http://www.w3.org/2000/svg" xmlns:xlink="http://www.w3.org/1999/xlink" version="1.1" width="350" height="350" viewBox="0 0 350 350" xml:space="preserve">
<desc>Created with Fabric.js 1.7.22</desc>
<defs>
</defs>
<g style="stroke: none; stroke-width: 1; stroke-dasharray: none; stroke-linecap: butt; stroke-linejoin: miter; stroke-miterlimit: 10; fill: rgb(252,81,133); fill-rule: nonzero; opacity: 1;" transform="translate(-1.9444444444444287 -1.9444444444444287) scale(3.89 3.89)" >
	<circle id="Layer_1" cx="45" cy="45" r="45" style="stroke: none; stroke-width: 1; stroke-dasharray: none; stroke-linecap: butt; stroke-linejoin: miter; stroke-miterlimit: 10; fill: rgb(252,81,133); fill-rule: nonzero; opacity: 1;" transform="  matrix(1 0 0 1 0 0) "/>
</g>
<g id="icon" style="stroke: none; stroke-width: 1; stroke-dasharray: none; stroke-linecap: butt; stroke-linejoin: miter; stroke-miterlimit: 10; fill: none; fill-rule: nonzero; opacity: 1;" transform="translate(25.355555555555554 25.355555555555554) scale(3.29 3.29)" >
	<path d="M 45 19 c 14.336 0 26 11.664 26 26 S 59.336 71 45 71 S 19 59.337 19 45 S 30.663 19 45 19" style="stroke: none; stroke-width: 1; stroke-dasharray: none; stroke-linecap: butt; stroke-linejoin: miter; stroke-miterlimit: 10; fill: rgb(54,79,107); fill-rule: nonzero; opacity: 1;" transform=" matrix(1 0 0 1 0 0) " stroke-linecap="round" />
	<path d="M 45 19.564 c 14.026 0 25.436 11.411 25.436 25.436 S 59.025 70.436 45 70.436 S 19.563 59.026 19.563 45 S 30.974 19.564 45 19.564 M 45 16.597 c -15.687 0 -28.403 12.717 -28.403 28.403 S 29.313 73.403 45 73.403 S 73.403 60.687 73.403 45 S 60.686 16.597 45 16.597 L 45 16.597 z" style="stroke: none; stroke-width: 1; stroke-dasharray: none; stroke-linecap: butt; stroke-linejoin: miter; stroke-miterlimit: 10; fill: rgb(67,221,230); fill-rule: nonzero; opacity: 1;" transform=" matrix(1 0 0 1 0 0) " stroke-linecap="round" />
	<path d="M 54.569 50.165 c -0.819 0 -1.484 0.664 -1.484 1.484 c 0 1.681 -1.075 3.049 -2.396 3.049 h -11.38 c -1.321 0 -2.396 -1.368 -2.396 -3.049 V 38.352 c 0 -1.682 1.075 -3.05 2.396 -3.05 h 11.38 c 1.321 0 2.396 1.368 2.396 3.05 c 0 0.819 0.664 1.484 1.484 1.484 s 1.484 -0.664 1.484 -1.484 c 0 -3.318 -2.406 -6.017 -5.363 -6.017 h -4.207 v -3.114 c 0 -0.82 -0.664 -1.484 -1.483 -1.484 c -0.82 0 -1.484 0.664 -1.484 1.484 v 3.114 h -4.207 c -2.957 0 -5.363 2.699 -5.363 6.017 v 13.297 c 0 3.318 2.406 6.016 5.363 6.016 h 4.207 v 3.115 c 0 0.819 0.664 1.484 1.484 1.484 c 0.819 0 1.483 -0.664 1.483 -1.484 v -3.115 h 4.207 c 2.957 0 5.363 -2.699 5.363 -6.016 C 56.053 50.83 55.388 50.165 54.569 50.165 z" style="stroke: none; stroke-width: 1; stroke-dasharray: none; stroke-linecap: butt; stroke-linejoin: miter; stroke-miterlimit: 10; fill: rgb(67,221,230); fill-rule: nonzero; opacity: 1;" transform=" matrix(1 0 0 1 0 0) " stroke-linecap="round" />
	<path d="M 45 4.189 c -22.029 0 -40.026 17.547 -40.775 39.397 L 2.477 42.01 c -0.609 -0.549 -1.547 -0.5 -2.095 0.108 c -0.549 0.608 -0.5 1.547 0.108 2.095 l 4.189 3.778 c 0.283 0.254 0.638 0.382 0.994 0.382 c 0.356 0 0.711 -0.127 0.994 -0.382 l 4.188 -3.778 c 0.608 -0.549 0.656 -1.487 0.108 -2.095 c -0.549 -0.608 -1.486 -0.657 -2.095 -0.108 l -1.673 1.51 C 7.975 23.336 24.629 7.156 45 7.156 c 0.819 0 1.483 -0.664 1.483 -1.484 S 45.819 4.189 45 4.189 z" style="stroke: none; stroke-width: 1; stroke-dasharray: none; stroke-linecap: butt; stroke-linejoin: miter; stroke-miterlimit: 10; fill: rgb(67,221,230); fill-rule: nonzero; opacity: 1;" transform=" matrix(1 0 0 1 0 0) " stroke-linecap="round" />
	<path d="M 89.51 46.803 l -4.189 -3.778 c -0.564 -0.509 -1.424 -0.509 -1.988 0 l -4.189 3.778 c -0.608 0.549 -0.657 1.487 -0.108 2.095 c 0.55 0.608 1.487 0.655 2.096 0.108 l 1.616 -1.458 C 81.432 67.231 65.01 82.844 45 82.844 c -0.82 0 -1.484 0.664 -1.484 1.484 c 0 0.819 0.664 1.484 1.484 1.484 c 21.699 0 39.491 -17.025 40.736 -38.417 l 1.787 1.612 c 0.284 0.256 0.639 0.382 0.994 0.382 c 0.405 0 0.808 -0.165 1.102 -0.49 C 90.167 48.29 90.119 47.352 89.51 46.803 z" style="stroke: none; stroke-width: 1; stroke-dasharray: none; stroke-linecap: butt; stroke-linejoin: miter; stroke-miterlimit: 10; fill: rgb(67,221,230); fill-rule: nonzero; opacity: 1;" transform=" matrix(1 0 0 1 0 0) " stroke-linecap="round" />
</g>
</svg>