<svg id="SvgjsSvg1060" width="288" height="288" xmlns="http://www.w3.org/2000/svg" version="1.1" xmlns:xlink="http://www.w3.org/1999/xlink" xmlns:svgjs="http://svgjs.com/svgjs"><defs id="SvgjsDefs1061"></defs><g id="SvgjsG1062"><svg xmlns="http://www.w3.org/2000/svg" xmlns:svgjs="http://svgjs.com/svgjs" xmlns:xlink="http://www.w3.org/1999/xlink" width="288" height="288"><svg xmlns="http://www.w3.org/2000/svg" width="288" height="288" enable-background="new 0 0 64 64" viewBox="0 0 64 64"><circle style="--darkreader-inline-fill:#9b0331;" cx="31.8" cy="32" r="32" fill="#fc5185" class="color4f5d73 svgShape colorfc5185" data-darkreader-inline-fill=""></circle><g style="--darkreader-inline-fill:#000000;" class="color000 svgShape" opacity=".2" fill="#000000" data-darkreader-inline-fill=""><circle style="--darkreader-inline-fill:#d3cfca;" cx="44" cy="39" r="2" fill="#fc5185" class="colorfc5185 svgShape" data-darkreader-inline-fill=""></circle><circle style="--darkreader-inline-fill:#d3cfca;" cx="44" cy="51" r="2" fill="#fc5185" class="colorfc5185 svgShape" data-darkreader-inline-fill=""></circle><path style="--darkreader-inline-fill:#191b1c;" fill="#fc5185" d="M26 22h-4v-4c0-1.1-.9-2-2-2s-2 .9-2 2v4h-4c-1.1 0-2 .9-2 2 0 1.1.9 2 2 2h4v4c0 1.1.9 2 2 2s2-.9 2-2v-4h4c1.1 0 2-.9 2-2C28 22.9 27.1 22 26 22zM38 26h12c1.1 0 2-.9 2-2 0-1.1-.9-2-2-2H38c-1.1 0-2 .9-2 2C36 25.1 36.9 26 38 26zM50 43H38c-1.1 0-2 .9-2 2 0 1.1.9 2 2 2h12c1.1 0 2-.9 2-2C52 43.9 51.1 43 50 43zM26.8 39.2c-.8-.8-2-.8-2.8 0l-4 4-4-4c-.8-.8-2-.8-2.8 0-.8.8-.8 2 0 2.8l4 4-4 4c-.8.8-.8 2 0 2.8s2 .8 2.8 0l4-4 4 4c.8.8 2 .8 2.8 0s.8-2 0-2.8l-4-4 4-4C27.6 41.2 27.6 40 26.8 39.2z" class="colorfc5185 svgShape" data-darkreader-inline-fill=""></path></g><circle style="--darkreader-inline-fill:#9db7cd;" cx="44" cy="37" r="2" fill="#364f6b" class="colore0e0d1 svgShape colorfff" data-darkreader-inline-fill=""></circle><circle style="--darkreader-inline-fill:#9db7cd;" cx="44" cy="49" r="2" fill="#364f6b" class="colore0e0d1 svgShape colorfff" data-darkreader-inline-fill=""></circle><path style="--darkreader-inline-fill:#15969e;" fill="#43dde6" d="M28,22c0,1.1-0.9,2-2,2H14c-1.1,0-2-0.9-2-2l0,0c0-1.1,0.9-2,2-2h12C27.1,20,28,20.9,28,22L28,22z" class="colorf5cf87 svgShape color43dde6" data-darkreader-inline-fill=""></path><path style="--darkreader-inline-fill:#181a1b;" fill="#ffffff" d="M52,22c0,1.1-0.9,2-2,2H38c-1.1,0-2-0.9-2-2l0,0c0-1.1,0.9-2,2-2h12C51.1,20,52,20.9,52,22L52,22z" class="colore0995e svgShape" data-darkreader-inline-fill=""></path><path style="--darkreader-inline-fill:#15969e;" fill="#43dde6" d="M20,30c-1.1,0-2-0.9-2-2V16c0-1.1,0.9-2,2-2l0,0c1.1,0,2,0.9,2,2v12C22,29.1,21.1,30,20,30L20,30z" class="colorf5cf87 svgShape color43dde6" data-darkreader-inline-fill=""></path><path style="--darkreader-inline-fill:#2b3f56;" fill="#364f6b" d="M52,43c0,1.1-0.9,2-2,2H38c-1.1,0-2-0.9-2-2l0,0c0-1.1,0.9-2,2-2h12C51.1,41,52,41.9,52,43L52,43z" class="colore0e0d1 svgShape colorfff" data-darkreader-inline-fill=""></path><path style="--darkreader-inline-fill:#ab9f02;" fill="#fdef36" d="M26.8,50.8c-0.8,0.8-2,0.8-2.8,0L13.2,40c-0.8-0.8-0.8-2,0-2.8l0,0c0.8-0.8,2-0.8,2.8,0L26.8,48			C27.6,48.8,27.6,50,26.8,50.8L26.8,50.8z" class="color76c2af svgShape color364f6b" data-darkreader-inline-fill=""></path><path style="--darkreader-inline-fill:#ab9f02;" fill="#fdef36" d="M13.2,50.8c-0.8-0.8-0.8-2,0-2.8L24,37.2c0.8-0.8,2-0.8,2.8,0l0,0c0.8,0.8,0.8,2,0,2.8L16,50.8
			C15.2,51.6,14,51.6,13.2,50.8L13.2,50.8z" class="color76c2af svgShape color364f6b" data-darkreader-inline-fill=""></path></svg></svg></g></svg>
