<?xml version="1.0" encoding="UTF-8" standalone="no" ?>
<!DOCTYPE svg PUBLIC "-//W3C//DTD SVG 1.1//EN" "http://www.w3.org/Graphics/SVG/1.1/DTD/svg11.dtd">
<svg xmlns="http://www.w3.org/2000/svg" xmlns:xlink="http://www.w3.org/1999/xlink" version="1.1" width="350" height="350" viewBox="0 0 350 350" xml:space="preserve">
<desc>Created with Fabric.js 1.7.22</desc>
<defs>
</defs>
<g id="icon" style="stroke: none; stroke-width: 1; stroke-dasharray: none; stroke-linecap: butt; stroke-linejoin: miter; stroke-miterlimit: 10; fill: none; fill-rule: nonzero; opacity: 1;" transform="translate(-1.9444444444444287 -1.9444444444444287) scale(3.89 3.89)" >
	<circle cx="45" cy="45" r="45" style="stroke: none; stroke-width: 1; stroke-dasharray: none; stroke-linecap: butt; stroke-linejoin: miter; stroke-miterlimit: 10; fill: rgb(252,81,133); fill-rule: nonzero; opacity: 1;" transform="  matrix(1 0 0 1 0 0) "/>
	<path d="M 25.218 45.436 c -3.513 0 -7.026 -1.337 -9.7 -4.011 c -5.349 -5.349 -5.349 -14.052 0 -19.401 c 5.35 -5.349 14.052 -5.348 19.401 0 c 5.349 5.349 5.349 14.052 0 19.401 l 0 0 C 32.244 44.099 28.731 45.436 25.218 45.436 z M 25.218 24.01 c -1.977 0 -3.953 0.752 -5.458 2.257 c -3.009 3.009 -3.009 7.906 0 10.916 c 3.009 3.009 7.906 3.009 10.916 0 c 3.009 -3.009 3.009 -7.906 0 -10.916 C 29.171 24.762 27.195 24.01 25.218 24.01 z M 32.797 39.304 h 0.01 H 32.797 z" style="stroke: none; stroke-width: 1; stroke-dasharray: none; stroke-linecap: butt; stroke-linejoin: miter; stroke-miterlimit: 10; fill: rgb(252,81,133); fill-rule: nonzero; opacity: 1;" transform=" matrix(1 0 0 1 0 0) " stroke-linecap="round" />
	<path d="M 58.275 78.5 c -3.665 0 -7.109 -1.427 -9.7 -4.019 c -5.349 -5.349 -5.349 -14.051 0 -19.399 c 2.591 -2.592 6.035 -4.019 9.7 -4.019 s 7.109 1.427 9.7 4.019 c 5.349 5.349 5.349 14.051 0 19.399 l 0 0 l 0 0 C 65.385 77.073 61.939 78.5 58.275 78.5 z M 58.275 57.063 c -2.062 0 -4 0.803 -5.458 2.261 c -3.009 3.01 -3.009 7.905 0 10.915 c 1.458 1.458 3.396 2.261 5.458 2.261 s 4 -0.803 5.458 -2.261 l 0 0 c 3.009 -3.01 3.009 -7.905 0 -10.915 C 62.275 57.866 60.337 57.063 58.275 57.063 z" style="stroke: none; stroke-width: 1; stroke-dasharray: none; stroke-linecap: butt; stroke-linejoin: miter; stroke-miterlimit: 10; fill: rgb(252,81,133); fill-rule: nonzero; opacity: 1;" transform=" matrix(1 0 0 1 0 0) " stroke-linecap="round" />
	<path d="M 20.772 72.229 c -0.768 0 -1.536 -0.293 -2.121 -0.879 c -1.172 -1.171 -1.172 -3.071 0 -4.242 l 41.95 -41.951 c 1.172 -1.172 3.07 -1.171 4.242 0 c 1.172 1.172 1.172 3.071 0 4.243 L 22.894 71.35 C 22.308 71.936 21.54 72.229 20.772 72.229 z" style="stroke: none; stroke-width: 1; stroke-dasharray: none; stroke-linecap: butt; stroke-linejoin: miter; stroke-miterlimit: 10; fill: rgb(252,81,133); fill-rule: nonzero; opacity: 1;" transform=" matrix(1 0 0 1 0 0) " stroke-linecap="round" />
	<path d="M 28.725 41.93 c -3.513 0 -7.026 -1.337 -9.7 -4.011 c -5.349 -5.349 -5.349 -14.052 0 -19.401 c 5.35 -5.349 14.053 -5.348 19.401 0 c 5.349 5.349 5.349 14.052 0 19.401 l 0 0 C 35.75 40.593 32.238 41.93 28.725 41.93 z M 28.725 20.504 c -1.977 0 -3.953 0.752 -5.458 2.257 c -3.009 3.009 -3.009 7.906 0 10.916 c 3.009 3.009 7.906 3.009 10.916 0 c 3.009 -3.009 3.009 -7.906 0 -10.916 C 32.678 21.256 30.701 20.504 28.725 20.504 z M 36.304 35.797 h 0.01 H 36.304 z" style="stroke: none; stroke-width: 1; stroke-dasharray: none; stroke-linecap: butt; stroke-linejoin: miter; stroke-miterlimit: 10; fill: rgb(67,221,230); fill-rule: nonzero; opacity: 1;" transform=" matrix(1 0 0 1 0 0) " stroke-linecap="round" />
	<path d="M 61.781 74.987 c -3.513 0 -7.025 -1.337 -9.699 -4.012 c -2.592 -2.591 -4.019 -6.035 -4.019 -9.7 s 1.427 -7.109 4.019 -9.7 c 5.349 -5.35 14.051 -5.348 19.399 0 c 2.592 2.591 4.019 6.035 4.019 9.7 c 0 3.664 -1.427 7.109 -4.019 9.7 l 0 0 l 0 0 C 68.808 73.65 65.295 74.987 61.781 74.987 z M 61.781 53.561 c -1.976 0 -3.952 0.753 -5.457 2.257 c -1.458 1.458 -2.261 3.396 -2.261 5.458 s 0.803 4 2.261 5.458 c 3.009 3.007 7.904 3.009 10.915 0 l 0 0 c 1.458 -1.458 2.261 -3.396 2.261 -5.458 s -0.803 -4 -2.261 -5.458 C 65.734 54.313 63.758 53.561 61.781 53.561 z" style="stroke: none; stroke-width: 1; stroke-dasharray: none; stroke-linecap: butt; stroke-linejoin: miter; stroke-miterlimit: 10; fill: rgb(67,221,230); fill-rule: nonzero; opacity: 1;" transform=" matrix(1 0 0 1 0 0) " stroke-linecap="round" />
	<path d="M 24.278 68.722 c -0.768 0 -1.536 -0.293 -2.122 -0.879 c -1.171 -1.172 -1.171 -3.071 0 -4.242 l 41.951 -41.95 c 1.172 -1.171 3.07 -1.171 4.242 0 c 1.172 1.171 1.172 3.071 0 4.243 L 26.399 67.843 C 25.813 68.429 25.045 68.722 24.278 68.722 z" style="stroke: none; stroke-width: 1; stroke-dasharray: none; stroke-linecap: butt; stroke-linejoin: miter; stroke-miterlimit: 10; fill: rgb(67,221,230); fill-rule: nonzero; opacity: 1;" transform=" matrix(1 0 0 1 0 0) " stroke-linecap="round" />
</g>
</svg>