<?xml version="1.0" encoding="UTF-8" standalone="no" ?>
<!DOCTYPE svg PUBLIC "-//W3C//DTD SVG 1.1//EN" "http://www.w3.org/Graphics/SVG/1.1/DTD/svg11.dtd">
<svg xmlns="http://www.w3.org/2000/svg" xmlns:xlink="http://www.w3.org/1999/xlink" version="1.1" width="350" height="350" viewBox="0 0 350 350" xml:space="preserve">
<desc>Created with Fabric.js 1.7.22</desc>
<defs>
</defs>
<g id="icon" style="stroke: none; stroke-width: 1; stroke-dasharray: none; stroke-linecap: butt; stroke-linejoin: miter; stroke-miterlimit: 10; fill: none; fill-rule: nonzero; opacity: 1;" transform="translate(-1.9444444444444287 -1.9444444444444287) scale(3.89 3.89)" >
	<circle cx="45" cy="45" r="45" style="stroke: none; stroke-width: 1; stroke-dasharray: none; stroke-linecap: butt; stroke-linejoin: miter; stroke-miterlimit: 10; fill: rgb(252,81,133); fill-rule: nonzero; opacity: 1;" transform="  matrix(1 0 0 1 0 0) "/>
	<circle cx="41.917" cy="48.086999999999996" r="4.357" style="stroke: none; stroke-width: 1; stroke-dasharray: none; stroke-linecap: butt; stroke-linejoin: miter; stroke-miterlimit: 10; fill: rgb(252,81,133); fill-rule: nonzero; opacity: 1;" transform="  matrix(1 0 0 1 0 0) "/>
	<path d="M 41.916 52.941 c -2.678 0 -4.857 -2.179 -4.857 -4.857 c 0 -2.678 2.179 -4.856 4.857 -4.856 s 4.857 2.179 4.857 4.856 C 46.772 50.763 44.594 52.941 41.916 52.941 z M 41.916 44.228 c -2.127 0 -3.857 1.73 -3.857 3.856 c 0 2.127 1.73 3.857 3.857 3.857 s 3.857 -1.73 3.857 -3.857 C 45.772 45.958 44.042 44.228 41.916 44.228 z" style="stroke: none; stroke-width: 1; stroke-dasharray: none; stroke-linecap: butt; stroke-linejoin: miter; stroke-miterlimit: 10; fill: rgb(252,81,133); fill-rule: nonzero; opacity: 1;" transform=" matrix(1 0 0 1 0 0) " stroke-linecap="round" />
	<path d="M 41.917 51.084 c -0.876 0 -1.745 -0.382 -2.338 -1.117 c -1.04 -1.29 -0.837 -3.179 0.453 -4.219 l 10.153 -8.183 c 1.291 -1.04 3.18 -0.836 4.219 0.453 c 1.04 1.29 0.837 3.179 -0.453 4.219 L 43.798 50.42 C 43.244 50.867 42.578 51.084 41.917 51.084 z" style="stroke: none; stroke-width: 1; stroke-dasharray: none; stroke-linecap: butt; stroke-linejoin: miter; stroke-miterlimit: 10; fill: rgb(252,81,133); fill-rule: nonzero; opacity: 1;" transform=" matrix(1 0 0 1 0 0) " stroke-linecap="round" />
	<path d="M 41.916 78.5 C 25.145 78.5 11.5 64.855 11.5 48.084 c 0 -16.771 13.645 -30.415 30.416 -30.415 s 30.416 13.644 30.416 30.415 C 72.331 64.855 58.687 78.5 41.916 78.5 z M 41.916 23.669 c -13.463 0 -24.416 10.953 -24.416 24.415 C 17.5 61.547 28.453 72.5 41.916 72.5 c 13.462 0 24.416 -10.953 24.416 -24.416 C 66.331 34.622 55.378 23.669 41.916 23.669 z" style="stroke: none; stroke-width: 1; stroke-dasharray: none; stroke-linecap: butt; stroke-linejoin: miter; stroke-miterlimit: 10; fill: rgb(252,81,133); fill-rule: nonzero; opacity: 1;" transform=" matrix(1 0 0 1 0 0) " stroke-linecap="round" />
	<path d="M 41.916 68.068 c -1.657 0 -3 -1.343 -3 -3 V 48.084 c 0 -1.657 1.343 -3 3 -3 s 3 1.343 3 3 v 16.984 C 44.916 66.726 43.572 68.068 41.916 68.068 z" style="stroke: none; stroke-width: 1; stroke-dasharray: none; stroke-linecap: butt; stroke-linejoin: miter; stroke-miterlimit: 10; fill: rgb(252,81,133); fill-rule: nonzero; opacity: 1;" transform=" matrix(1 0 0 1 0 0) " stroke-linecap="round" />
	<circle cx="45.086999999999996" cy="44.917" r="4.357" style="stroke: none; stroke-width: 1; stroke-dasharray: none; stroke-linecap: butt; stroke-linejoin: miter; stroke-miterlimit: 10; fill: rgb(67,221,230); fill-rule: nonzero; opacity: 1;" transform="  matrix(1 0 0 1 0 0) "/>
	<path d="M 45.084 49.772 c -2.678 0 -4.857 -2.179 -4.857 -4.857 s 2.179 -4.857 4.857 -4.857 s 4.857 2.179 4.857 4.857 S 47.763 49.772 45.084 49.772 z M 45.084 41.059 c -2.127 0 -3.857 1.73 -3.857 3.857 c 0 2.126 1.73 3.857 3.857 3.857 c 2.126 0 3.857 -1.73 3.857 -3.857 C 48.941 42.789 47.211 41.059 45.084 41.059 z" style="stroke: none; stroke-width: 1; stroke-dasharray: none; stroke-linecap: butt; stroke-linejoin: miter; stroke-miterlimit: 10; fill: rgb(67,221,230); fill-rule: nonzero; opacity: 1;" transform=" matrix(1 0 0 1 0 0) " stroke-linecap="round" />
	<path d="M 45.086 47.916 c -0.876 0 -1.745 -0.383 -2.338 -1.118 c -1.04 -1.29 -0.837 -3.178 0.453 -4.218 l 10.153 -8.184 c 1.29 -1.039 3.179 -0.837 4.219 0.453 c 1.039 1.29 0.837 3.179 -0.453 4.219 l -10.153 8.183 C 46.412 47.698 45.747 47.916 45.086 47.916 z" style="stroke: none; stroke-width: 1; stroke-dasharray: none; stroke-linecap: butt; stroke-linejoin: miter; stroke-miterlimit: 10; fill: rgb(67,221,230); fill-rule: nonzero; opacity: 1;" transform=" matrix(1 0 0 1 0 0) " stroke-linecap="round" />
	<path d="M 45.084 75.331 c -16.771 0 -30.416 -13.645 -30.416 -30.416 S 28.313 14.5 45.084 14.5 S 75.5 28.145 75.5 44.916 S 61.855 75.331 45.084 75.331 z M 45.084 20.5 c -13.463 0 -24.416 10.953 -24.416 24.416 c 0 13.462 10.953 24.416 24.416 24.416 c 13.462 0 24.416 -10.953 24.416 -24.416 C 69.5 31.453 58.547 20.5 45.084 20.5 z" style="stroke: none; stroke-width: 1; stroke-dasharray: none; stroke-linecap: butt; stroke-linejoin: miter; stroke-miterlimit: 10; fill: rgb(67,221,230); fill-rule: nonzero; opacity: 1;" transform=" matrix(1 0 0 1 0 0) " stroke-linecap="round" />
	<path d="M 45.084 64.899 c -1.657 0 -3 -1.343 -3 -3 V 44.916 c 0 -1.657 1.343 -3 3 -3 s 3 1.343 3 3 v 16.984 C 48.084 63.557 46.741 64.899 45.084 64.899 z" style="stroke: none; stroke-width: 1; stroke-dasharray: none; stroke-linecap: butt; stroke-linejoin: miter; stroke-miterlimit: 10; fill: rgb(67,221,230); fill-rule: nonzero; opacity: 1;" transform=" matrix(1 0 0 1 0 0) " stroke-linecap="round" />
</g>
</svg>